<?xml version="1.0" encoding="UTF-8" standalone="no"?>
<!DOCTYPE svg PUBLIC "-//W3C//DTD SVG 1.0//EN" "http://www.w3.org/TR/2001/PR-SVG-20010719/DTD/svg10.dtd">
<svg width="19cm" height="7cm" viewBox="439 228 362 133" xmlns="http://www.w3.org/2000/svg" xmlns:xlink="http://www.w3.org/1999/xlink">
  <line style="fill: none; fill-opacity:0; stroke-width: 2; stroke: #ff0000" x1="500" y1="340" x2="520" y2="300"/>
  <g>
    <path style="fill: none; fill-opacity:0; stroke-width: 2; stroke: #ff0000" d="M 511.998 280 C 511.998,291.998 523.997,291.998 523.997,280 C 523.997,291.998 535.995,291.998 535.995,280 C 535.995,291.998 547.993,291.998 547.993,280"/>
    <line style="fill: none; fill-opacity:0; stroke-width: 2; stroke: #ff0000" x1="500" y1="280" x2="511.998" y2="280"/>
    <line style="fill: none; fill-opacity:0; stroke-width: 2; stroke: #ff0000" x1="547.993" y1="280" x2="559.991" y2="280"/>
  </g>
  <line style="fill: none; fill-opacity:0; stroke-width: 2; stroke: #000000" x1="500" y1="280" x2="500" y2="240"/>
  <line style="fill: none; fill-opacity:0; stroke-width: 2; stroke: #000000" x1="559.991" y1="280" x2="560" y2="240"/>
  <text font-size="12.7998" style="fill: #000000;text-anchor:start;font-family:sans-serif;font-style:normal;font-weight:normal" x="520" y="240">
    <tspan x="520" y="240">False</tspan>
  </text>
  <g>
    <ellipse style="fill: #ffffff" cx="520" cy="300" rx="4" ry="4"/>
    <ellipse style="fill: none; fill-opacity:0; stroke-width: 2; stroke: #000000" cx="520" cy="300" rx="4" ry="4"/>
  </g>
  <g>
    <ellipse style="fill: #ffffff" cx="500" cy="340" rx="4" ry="4"/>
    <ellipse style="fill: none; fill-opacity:0; stroke-width: 2; stroke: #000000" cx="500" cy="340" rx="4" ry="4"/>
  </g>
  <g>
    <ellipse style="fill: #ffffff" cx="540" cy="340" rx="4" ry="4"/>
    <ellipse style="fill: none; fill-opacity:0; stroke-width: 2; stroke: #000000" cx="540" cy="340" rx="4" ry="4"/>
  </g>
  <line style="fill: none; fill-opacity:0; stroke-width: 2; stroke: #000000" x1="520" y1="300" x2="440" y2="300"/>
  <line style="fill: none; fill-opacity:0; stroke-width: 2; stroke: #000000" x1="500" y1="340" x2="440" y2="340"/>
  <line style="fill: none; fill-opacity:0; stroke-width: 2; stroke: #000000" x1="540" y1="340" x2="600" y2="340"/>
  <text font-size="12.7998" style="fill: #000000;text-anchor:start;font-family:sans-serif;font-style:normal;font-weight:normal" x="540" y="240">
    <tspan x="540" y="240"></tspan>
  </text>
  <line style="fill: none; fill-opacity:0; stroke-width: 2; stroke: #ff0000" x1="700" y1="340" x2="740" y2="340"/>
  <g>
    <path style="fill: none; fill-opacity:0; stroke-width: 2; stroke: #000000" d="M 711.998 280 C 711.998,291.998 723.997,291.998 723.997,280 C 723.997,291.998 735.995,291.998 735.995,280 C 735.995,291.998 747.993,291.998 747.993,280"/>
    <line style="fill: none; fill-opacity:0; stroke-width: 2; stroke: #000000" x1="700" y1="280" x2="711.998" y2="280"/>
    <line style="fill: none; fill-opacity:0; stroke-width: 2; stroke: #000000" x1="747.993" y1="280" x2="759.991" y2="280"/>
  </g>
  <line style="fill: none; fill-opacity:0; stroke-width: 2; stroke: #000000" x1="700" y1="280" x2="700" y2="240"/>
  <line style="fill: none; fill-opacity:0; stroke-width: 2; stroke: #000000" x1="759.991" y1="280" x2="760" y2="240"/>
  <text font-size="12.7998" style="fill: #000000;text-anchor:start;font-family:sans-serif;font-style:normal;font-weight:normal" x="720" y="240">
    <tspan x="720" y="240">True</tspan>
  </text>
  <text font-size="12.7998" style="fill: #000000;text-anchor:start;font-family:sans-serif;font-style:normal;font-weight:normal" x="740" y="240">
    <tspan x="740" y="240"></tspan>
  </text>
  <g>
    <ellipse style="fill: #ffffff" cx="700" cy="340" rx="4" ry="4"/>
    <ellipse style="fill: none; fill-opacity:0; stroke-width: 2; stroke: #000000" cx="700" cy="340" rx="4" ry="4"/>
  </g>
  <g>
    <ellipse style="fill: #ffffff" cx="740" cy="340" rx="4" ry="4"/>
    <ellipse style="fill: none; fill-opacity:0; stroke-width: 2; stroke: #000000" cx="740" cy="340" rx="4" ry="4"/>
  </g>
  <g>
    <ellipse style="fill: #ffffff" cx="720" cy="300" rx="4" ry="4"/>
    <ellipse style="fill: none; fill-opacity:0; stroke-width: 2; stroke: #000000" cx="720" cy="300" rx="4" ry="4"/>
  </g>
  <line style="fill: none; fill-opacity:0; stroke-width: 2; stroke: #000000" x1="720" y1="300" x2="640" y2="300"/>
  <line style="fill: none; fill-opacity:0; stroke-width: 2; stroke: #000000" x1="700" y1="340" x2="640" y2="340"/>
  <line style="fill: none; fill-opacity:0; stroke-width: 2; stroke: #000000" x1="740" y1="340" x2="800" y2="340"/>
</svg>
